# xmcd
#
# Track frame offsets:
#	150
#	15026
#	32380
#	47881
#	61439
#	78442
#	96973
#	113973
#	125987
#	138472
#	155224
#	171044
#	186714
#	200953
#	211045
#	228618
#	240256
#	253235
#	270942
#	281729
#
# Disc length: 3955 seconds
#
# Revision: 0
# Processed by: cddbd v1.5.2PL0 Copyright (c) Steve Scherf et al.
# Submitted via: dBpowerAMP V4.0
#
DISCID=270f7114
DTITLE=Various Artist - 20 country hits
DYEAR=2003
DGENRE=Country
TTITLE0=Ain't Nothing' Bout You
TTITLE1=Friends In Low Places
TTITLE2=Courtesy Of Red, White And Blue
TTITLE3=Ten Rounds With Jose Cuervo
TTITLE4=Cowboy In Me
TTITLE5=Modern Day Bonnie And Clyde
TTITLE6=Hands Of A Working Man
TTITLE7=Falson Prison Blue
TTITLE8=Okie From Muskogee
TTITLE9=Always On My Mind
TTITLE10=Devil Wen't Down To Georgia
TTITLE11=I'm No Stranger To The Rain
TTITLE12=Luckenbach, Texas
TTITLE13=Six Days On The Road
TTITLE14=You Never Even Called Me By My Name
TTITLE15=Take This Job And Shove It
TTITLE16=Don't Rock The Jukebox
TTITLE17=Amazed
TTITLE18=Crazy Little Thing Called Love
TTITLE19=Boot Scootin' Boogie
EXTD=20 country  hits
EXTT0=
EXTT1=
EXTT2=
EXTT3=
EXTT4=
EXTT5=
EXTT6=
EXTT7=
EXTT8=
EXTT9=
EXTT10=
EXTT11=
EXTT12=
EXTT13=
EXTT14=
EXTT15=
EXTT16=
EXTT17=
EXTT18=
EXTT19=
PLAYORDER=
